{"title":"Ek Villain (2014) - 1CD - DVDRip - Hindi - x264 - MP3 - TeamTNT","uid":10746857,"size":740644611,"categoryP":"video","categoryS":"movies","magnet":"?xt=urn:btih:012a6a4826445540cd1b4e2ff800aba5b2a34bc3&amp;dn=Ek+Villain+%282014%29+-+1CD+-+DVDRip+-+Hindi+-+x264+-+MP3+-+TeamTNT+&amp;tr=udp%3A%2F%2Ftracker.openbittorrent.com%3A80&amp;tr=udp%3A%2F%2Fopen.demonii.com%3A1337&amp;tr=udp%3A%2F%2Ftracker.coppersurfer.tk%3A6969&amp;tr=udp%3A%2F%2Fexodus.desync.com%3A6969","seeders":0,"leechers":2,"uploader":"inovai","files":4,"time":1407829001,"description":"IMDB Rating: 6.7/10.0\n\n\nGENRE: Action | Romance | Thriller\n\nScreenshots:\n &lt;a href=&quot;\nhttp://img.primetimeshow.in/share.php?id=AF47_53E9A071&quot; rel=&quot;nofollow&quot; target=&quot;_NEW&quot;&gt;\nhttp://img.primetimeshow.in/share.php?id=AF47_53E9A071&lt;/a&gt;\n &lt;a href=&quot;\nhttp://img.primetimeshow.in/share.php?id=2604_53E9A071&quot; rel=&quot;nofollow&quot; target=&quot;_NEW&quot;&gt;\nhttp://img.primetimeshow.in/share.php?id=2604_53E9A071&lt;/a&gt;\n &lt;a href=&quot;\nhttp://img.primetimeshow.in/share.php?id=8AD8_53E9A071&quot; rel=&quot;nofollow&quot; target=&quot;_NEW&quot;&gt;\nhttp://img.primetimeshow.in/share.php?id=8AD8_53E9A071&lt;/a&gt;\n &lt;a href=&quot;\nhttp://img.primetimeshow.in/share.php?id=4A1C_53E9A071&quot; rel=&quot;nofollow&quot; target=&quot;_NEW&quot;&gt;\nhttp://img.primetimeshow.in/share.php?id=4A1C_53E9A071&lt;/a&gt;\n &lt;a href=&quot;\nhttp://img.primetimeshow.in/share.php?id=B4A2_53E9A071&quot; rel=&quot;nofollow&quot; target=&quot;_NEW&quot;&gt;\nhttp://img.primetimeshow.in/share.php?id=B4A2_53E9A071&lt;/a&gt;\n\nGeneral Info:\nUnique ID : 223281051909489503809482481821801323642 (0xA7FA5DCBA5F7E5B8AADC98EE97711C7A)\nComplete name : Ek Villain (2014) - 1CD - DVDRip - Hindi - x264 - MP3 - TeamTNT ExClusive.mkv\nFormat : Matroska\nFormat version : Version 4 / Version 2\nFile size : 700 MiB\nDuration : 2h 3mn\nOverall bit rate : 791 Kbps\nMovie name : Ek Villain (2014) - 1CD - DVDRip - Hindi - x264 - MP3 - TeamTNT ExClusive\nEncoded date : UTC 2014-08-11 18:40:40\nWriting application : mkvmerge v7.0.0 ('Where We Going') 32bit built on Jun 9 2014 15:08:34\nWriting library : libebml v1.3.0 + libmatroska v1.4.1\n\n\nVideo\nID : 1\nFormat : AVC\nFormat/Info : Advanced Video Codec\nFormat profile : &lt;a class=&quot;__cf_email__&quot; href=&quot;/cdn-cgi/l/email-protection&quot; data-cfemail=&quot;6129080609212d524f51&quot;&gt;[email&amp;#160;protected]&lt;/a&gt;&lt;script cf-hash='f9e31' type=&quot;text/javascript&quot;&gt;\n/* &lt;![CDATA[ */!function(){try{var t=&quot;currentScript&quot;in document?document.currentScript:function(){for(var t=document.getElementsByTagName(&quot;script&quot;),e=t.length;e--;)if(t[e].getAttribute(&quot;cf-hash&quot;))return t[e]}();if(t&amp;&amp;t.previousSibling){var e,r,n,i,c=t.previousSibling,a=c.getAttribute(&quot;data-cfemail&quot;);if(a){for(e=&quot;&quot;,r=parseInt(a.substr(0,2),16),n=2;a.length-n;n+=2)i=parseInt(a.substr(n,2),16)^r,e+=String.fromCharCode(i);e=document.createTextNode(e),c.parentNode.replaceChild(e,c)}}}catch(u){}}();/* ]]&gt; */&lt;/script&gt;\nFormat settings, CABAC : Yes\nFormat settings, ReFrames : 4 frames\nCodec ID : V_MPEG4/ISO/AVC\nDuration : 2h 3mn\nBit rate : 709 Kbps\nWidth : 640 pixels\nHeight : 272 pixels\nDisplay aspect ratio : 2.35:1\nFrame rate mode : Constant\nFrame rate : 29.970 fps\nColor space : YUV\nChroma subsampling : 4:2:0\nBit depth : 8 bits\nScan type : Progressive\nBits/(Pixel*Frame) : 0.136\nStream size : 616 MiB (88%)\nTitle : Mafiaking@TeamTNT\nLanguage : Hindi\nDefault : Yes\nForced : No\n\n\nAudio\nID : 2\nFormat : MPEG Audio\nFormat version : Version 1\nFormat profile : Layer 3\nMode : Joint stereo\nMode extension : MS Stereo\nCodec ID : A_MPEG/L3\nCodec ID/Hint : MP3\nDuration : 2h 3mn\nBit rate mode : Constant\nBit rate : 80.0 Kbps\nChannel(s) : 2 channels\nSampling rate : 32.0 KHz\nCompression mode : Lossy\nStream size : 70.8 MiB (10%)\nTitle : Mafiaking@TeamTNT\nWriting library : LAME3.99r\nLanguage : Hindi\nDefault : Yes\nForced : No\n\n\n\n\n\nSAMPLE WITH IN TORRENT\n","torrent":{"xt":"urn:btih:012a6a4826445540cd1b4e2ff800aba5b2a34bc3","amp;dn":"Ek+Villain+%282014%29+-+1CD+-+DVDRip+-+Hindi+-+x264+-+MP3+-+TeamTNT+","amp;tr":["udp%3A%2F%2Ftracker.openbittorrent.com%3A80","udp%3A%2F%2Fopen.demonii.com%3A1337","udp%3A%2F%2Ftracker.coppersurfer.tk%3A6969","udp%3A%2F%2Fexodus.desync.com%3A6969"],"infoHash":"012a6a4826445540cd1b4e2ff800aba5b2a34bc3","infoHashBuffer":{"type":"Buffer","data":[1,42,106,72,38,68,85,64,205,27,78,47,248,0,171,165,178,163,75,195]},"announce":[],"urlList":[]}}